<?xml version="1.0" encoding="UTF-8"?>
<svg width="20px" height="20px" viewBox="0 0 20 20" version="1.1" xmlns="http://www.w3.org/2000/svg" xmlns:xlink="http://www.w3.org/1999/xlink">
    <title>注意</title>
    <g id="V1.1" stroke="none" stroke-width="1" fill="none" fill-rule="evenodd">
        <g id="收费管理" transform="translate(-280, -839)" fill="#FF5D34" fill-rule="nonzero">
            <g id="编组-10" transform="translate(264, 823)">
                <g id="注意" transform="translate(16, 16)">
                    <path d="M8.7755948,1.95407174 C9.31341765,1.01530942 10.6865824,1.01530942 11.2358482,1.95407174 L19.8066846,16.6349572 C20.3559505,17.5737195 19.6693682,18.7386896 18.5708364,18.75 L1.42916361,18.75 C0.330631841,18.75 -0.355950514,17.5737195 0.19331537,16.6349572 Z M10,15 C9.48223305,15 9.0625,15.419733 9.0625,15.9375 C9.0625,16.455267 9.48223305,16.875 10,16.875 C10.517767,16.875 10.9375,16.455267 10.9375,15.9375 C10.9375,15.419733 10.517767,15 10,15 Z M10,6.25 C9.48223305,6.25 9.0625,6.66973305 9.0625,7.1875 L9.0625,12.8125 C9.0625,13.330267 9.48223305,13.75 10,13.75 C10.517767,13.75 10.9375,13.330267 10.9375,12.8125 L10.9375,7.1875 C10.9375,6.66973305 10.517767,6.25 10,6.25 Z" id="形状结合"></path>
                </g>
            </g>
        </g>
    </g>
</svg>