<?xml version="1.0" encoding="UTF-8"?>
<svg width="12px" height="12px" viewBox="0 0 12 12" version="1.1" xmlns="http://www.w3.org/2000/svg" xmlns:xlink="http://www.w3.org/1999/xlink">
    <title>对号备份</title>
    <g id="页面-1" stroke="none" stroke-width="1" fill="none" fill-rule="evenodd">
        <g id="定价-支付" transform="translate(-941, -357)" fill="#5B6167" fill-rule="nonzero">
            <g id="编组-8" transform="translate(360, 219)">
                <g id="编组-2" transform="translate(581, 134)">
                    <g id="对号备份" transform="translate(0, 4)">
                        <path d="M6,0 C10,0 12,2 12,6 C12,10 10,12 6,12 C2,12 0,10 0,6 C0,2 2,0 6,0 Z M8.96637129,3.91456632 C8.74659858,3.69499924 8.39044332,3.69516594 8.17087624,3.91493864 L5.06113614,7.0275 L3.85141273,5.81979618 C3.63162085,5.60024831 3.2754656,5.60044612 3.05591773,5.82023801 C2.83636985,6.04002989 2.83656766,6.39618514 3.05635955,6.61573301 L4.6637238,8.22131277 C4.88350211,8.44084708 5.23963056,8.44066484 5.45918407,8.22090572 L8.9667436,4.71006136 C9.18631068,4.49028866 9.18614399,4.1341334 8.96637129,3.91456632 Z" id="形状结合"></path>
                    </g>
                </g>
            </g>
        </g>
    </g>
</svg>