<?xml version="1.0" encoding="UTF-8"?>
<svg width="32px" height="32px" viewBox="0 0 32 32" version="1.1" xmlns="http://www.w3.org/2000/svg" xmlns:xlink="http://www.w3.org/1999/xlink">
    <title>企业_画板 39@2x</title>
    <g id="页面-1" stroke="none" stroke-width="1" fill="none" fill-rule="evenodd">
        <g id="定价-支付" transform="translate(-404, -623)" fill="#5B6167" fill-rule="nonzero">
            <g id="编组-9" transform="translate(360, 572)">
                <g id="编组-13" transform="translate(24, 28)">
                    <g id="企业_画板-39" transform="translate(20, 23)">
                        <path d="M22.6288053,2.37305419 C23.0204473,2.23747924 23.3145868,2.25900923 23.6919502,2.44276018 C24.0617664,2.62288728 25.6534241,3.72773786 25.9496034,4.01380953 C26.0658721,4.12614915 26.3712305,4.58595288 26.3712305,4.72515169 L26.3712305,28.0018359 C26.4530266,28.0862505 27.1973505,27.7436893 27.3764451,28.1371977 C27.4557934,28.3119956 27.4672163,29.6287353 27.2467137,29.6287353 L21.8000336,29.6287353 C21.7818794,29.6287353 21.6233867,29.5236434 21.6056404,29.4931604 L21.5446504,5.02657147 C21.4958991,4.86989287 21.331899,4.74412365 21.166879,4.77098284 C21.0187893,4.79507085 20.3731919,5.12974486 20.1677838,5.2218335 C18.029459,6.17981122 15.6408506,7.2130373 13.5747348,8.29294721 C13.376262,8.3967601 13.2344958,8.39505476 13.2049187,8.65192239 C13.1657544,8.99022026 13.1547395,10.3811425 13.2102221,10.6870388 C13.2300082,10.7957546 13.3515804,10.9596809 13.449083,10.9831294 C13.6673418,11.0353556 15.7193829,10.1487892 16.1403981,10.0260044 C16.2782888,9.98571558 16.4594232,9.91110672 16.5977218,9.92389681 C16.9036922,9.95203501 18.7858177,11.1775388 19.1684847,11.4395224 C19.2908728,11.5232975 19.6443705,11.7298575 19.680475,11.8532818 L19.7406492,27.6469109 C19.9835897,28.1139624 20.7572867,27.6294311 20.9818689,28.04383 C21.1122123,28.2842837 21.1334262,29.458414 20.8600927,29.5944153 L15.2826613,29.5950548 L15.1829149,29.4283573 L15.1563975,12.6505308 C15.1329398,12.3595562 15.1168253,12.2231286 14.7978003,12.2116175 L7.01432266,14.8538369 L6.69162593,15.0586915 L6.6579692,29.3893475 C6.65144183,29.4910287 6.60044677,29.537073 6.52640195,29.5907914 C6.29610827,29.7579152 4.81786354,29.7711317 4.64346045,29.5325965 C4.54534596,29.3987269 4.56003253,28.3989682 4.61306739,28.1992296 C4.68996794,27.9097473 5.17544089,28.12995 5.23622699,27.6326287 L5.23459515,14.2139061 L5.32414247,14.0365502 L11.5253454,11.7079012 C11.6140768,11.6079253 11.6389624,11.4994227 11.653445,11.3674716 C11.7713456,10.2926777 11.5033156,8.89003123 11.6560968,7.84657308 C11.6811863,7.67582538 11.7862362,7.47629998 11.9263706,7.38357183 Z M13.1298539,26.7341249 C13.41767,26.7230401 13.7566852,26.6450206 13.8427648,27.033413 C13.8603581,27.1127115 13.87035,27.429576 13.8728157,27.8021561 L13.8727754,28.1865728 C13.8693843,28.7059304 13.8526579,29.2165747 13.8227748,29.2874531 C13.7956454,29.3518299 13.7146652,29.411517 13.6606105,29.4569218 C12.4008286,29.6148794 11.1332954,29.5374994 9.86617025,29.557324 C9.31134403,29.5660639 8.69348791,29.6911936 8.11398008,29.632146 C7.95915908,29.6163716 7.80291023,29.5944153 7.73049725,29.423028 C7.65910416,29.2537725 7.6701191,27.3030707 7.7443679,27.1365863 C7.77170125,27.0754071 7.80291023,27.0187044 7.8692038,26.9961085 C9.62119,26.9070042 11.3768478,26.8021255 13.1298539,26.734338 Z M13.6149189,22.525759 C13.8127797,22.624669 13.840929,22.7357297 13.8605111,22.949111 C13.902531,23.408062 13.902939,24.395457 13.8564315,24.85185 C13.8466405,24.9490547 13.8360335,25.1031753 13.748322,25.1609438 L7.69643255,26.0366386 C7.79169131,25.3491713 7.56833296,24.2673429 7.69643255,23.6310359 C7.70561166,23.5860575 7.77272115,23.5152856 7.79413908,23.4619936 Z M13.5565806,18.2619694 C13.7026304,18.3067348 13.8248146,18.3877387 13.8552076,18.5499596 C13.9153818,18.8720567 13.8951878,20.217361 13.8603071,20.5855024 C13.851128,20.6816413 13.8684663,20.7790591 13.7964613,20.8577182 L13.5476054,21.0041647 L7.69663653,22.3096065 L7.69663653,20.0395787 C7.69663653,20.0163434 7.79638286,19.8671257 7.8290197,19.8392007 Z M13.5115009,13.9915717 C13.6646901,13.9862425 13.8266504,14.1254413 13.8554116,14.2808409 C13.9096703,14.5739471 13.9006952,16.0603687 13.8598992,16.3835316 C13.8480683,16.4779651 13.8456206,16.5600348 13.7634165,16.6216404 L7.99179592,18.5844929 C7.73090521,18.5465489 7.71581067,18.222107 7.70030817,18.0093652 C7.671139,17.60733 7.60851707,16.2677813 7.89164163,16.041823 Z" id="形状结合"></path>
                    </g>
                </g>
            </g>
        </g>
    </g>
</svg>