<?xml version="1.0" encoding="UTF-8"?>
<svg width="16px" height="16px" viewBox="0 0 16 16" version="1.1" xmlns="http://www.w3.org/2000/svg" xmlns:xlink="http://www.w3.org/1999/xlink">
    <title>订单</title>
    <g id="V1.1" stroke="none" stroke-width="1" fill="none" fill-rule="evenodd">
        <g id="收费管理" transform="translate(-1266, -130)" fill-rule="nonzero">
            <g id="编组-5" transform="translate(264, 88)">
                <g id="编组-9" transform="translate(986, 32)">
                    <g id="订单" transform="translate(16, 10)">
                        <rect id="矩形" fill="#000000" opacity="0" x="0" y="0" width="16" height="16"></rect>
                        <path d="M12.8333281,4 C12.8333281,3.72385763 13.0571858,3.5 13.3333281,3.5 C13.6094705,3.5 13.8333281,3.72385763 13.8333281,4 L13.8333281,12.8333281 C13.8333281,13.8458281 13.0125,14.6666719 12,14.6666719 L4,14.6666719 C2.9875,14.6666719 2.16667188,13.8458281 2.16667188,12.8333281 L2.16667188,3.16667188 C2.16667188,2.15417187 2.9875,1.33332812 4,1.33332812 L13.3333281,1.33332812 C13.6094705,1.33332812 13.8333281,1.55718575 13.8333281,1.83332812 C13.8333281,2.1094705 13.6094705,2.33332812 13.3333281,2.33332812 L4,2.33332812 C3.77898493,2.33332812 3.5670223,2.42112709 3.41074251,2.57740981 C3.25446272,2.73369252 3.16667188,2.94565681 3.16667188,3.16667188 L3.16667188,12.8333281 C3.16667188,13.0543432 3.25446272,13.2663075 3.41074251,13.4225902 C3.5670223,13.5788729 3.77898493,13.6666719 4,13.6666719 L12,13.6666719 C12.2210151,13.6666719 12.4329777,13.5788729 12.5892575,13.4225902 C12.7455373,13.2663075 12.8333323,13.0543432 12.8333281,12.8333281 L12.8333281,4 Z M5.33332812,6.83332812 C5.05718575,6.83332812 4.83332812,6.6094705 4.83332812,6.33332812 C4.83332812,6.05718575 5.05718575,5.83332812 5.33332812,5.83332812 L10.6666719,5.83332812 C10.9428142,5.83332812 11.1666719,6.05718575 11.1666719,6.33332812 C11.1666719,6.6094705 10.9428142,6.83332812 10.6666719,6.83332812 L5.33332812,6.83332812 Z M5.33332812,9.5 C5.05718575,9.5 4.83332812,9.27614237 4.83332812,9 C4.83332812,8.72385763 5.05718575,8.5 5.33332812,8.5 L8.66667188,8.5 C8.94281425,8.5 9.16667188,8.72385763 9.16667188,9 C9.16667188,9.27614237 8.94281425,9.5 8.66667188,9.5 L5.33332812,9.5 Z" id="形状" stroke="#212332" stroke-width="0.4" fill="#212332"></path>
                    </g>
                </g>
            </g>
        </g>
    </g>
</svg>