<?xml version="1.0" encoding="UTF-8"?>
<svg width="16px" height="16px" viewBox="0 0 16 16" version="1.1" xmlns="http://www.w3.org/2000/svg" xmlns:xlink="http://www.w3.org/1999/xlink">
    <title>模型管理</title>
    <g id="V1.0版" stroke="none" stroke-width="1" fill="none" fill-rule="evenodd">
        <g id="红熊空间-记忆看板" transform="translate(-24, -208)" stroke="#212332">
            <g id="空间管理" transform="translate(12, 200)">
                <g id="模型管理" transform="translate(12, 8)">
                    <path d="M8,1.80940108 C8.2589746,1.80940108 8.51794919,1.87638837 8.75,2.01036297 L12.8121778,4.35566243 C13.2762794,4.62361163 13.5621778,5.11880215 13.5621778,5.65470054 L13.5621778,10.3452995 C13.5621778,10.6132487 13.4907032,10.8710209 13.3612159,11.0952995 C13.2317286,11.319578 13.0442286,11.510363 12.8121778,11.6443376 L8.75,13.989637 C8.51794919,14.1236116 8.2589746,14.1905989 8,14.1905989 C7.7410254,14.1905989 7.48205081,14.1236116 7.25,13.989637 L3.18782217,11.6443376 C2.72372056,11.3763884 2.43782217,10.8811978 2.43782217,10.3452995 L2.43782217,5.65470054 C2.43782217,5.38675135 2.50929677,5.12897912 2.63878407,4.90470054 C2.76827137,4.68042196 2.95577137,4.48963703 3.18782217,4.35566243 L7.25,2.01036297 C7.48205081,1.87638837 7.7410254,1.80940108 8,1.80940108 Z" id="多边形"></path>
                    <polyline id="路径" stroke-linecap="round" stroke-linejoin="round" points="10.5 6 8 7.66666667 5.5 6"></polyline>
                    <line x1="8" y1="8.00532812" x2="8" y2="10.5053281" id="路径-19" stroke-linecap="round" stroke-linejoin="round"></line>
                </g>
            </g>
        </g>
    </g>
</svg>