<?xml version="1.0" encoding="UTF-8"?>
<svg width="16px" height="16px" viewBox="0 0 16 16" version="1.1" xmlns="http://www.w3.org/2000/svg" xmlns:xlink="http://www.w3.org/1999/xlink">
    <title>刷新</title>
    <g id="V1.0版" stroke="none" stroke-width="1" fill="none" fill-rule="evenodd">
        <g id="应用管理--API" transform="translate(-1071, -490)" fill="#5B6167" fill-rule="nonzero">
            <g id="2" transform="translate(220, 336)">
                <g id="主操作" transform="translate(839, 144)">
                    <g id="刷新" transform="translate(12, 10)">
                        <path d="M14.5,6.60760714 L14.5,3.35760714 L13.4384813,4.41757143 C12.2346397,2.59629629 10.195406,1.50029795 8.00999678,1.5 C4.41487535,1.5 1.5,4.41014286 1.5,8.00046429 C1.5,11.5907857 4.41487535,14.5009287 8.00999678,14.5009287 C10.6602392,14.5014558 13.046297,12.8977788 14.0434028,10.4458571 C14.1184045,10.261489 14.0892053,10.0511714 13.9668045,9.89412914 C13.8444036,9.73708685 13.6473966,9.65717825 13.4499941,9.68450414 C13.2525917,9.71183003 13.0847838,9.84223896 13.0097822,10.0266071 C12.1832078,12.0581943 10.2060581,13.38691 8.00999678,13.3866429 C5.03095604,13.3866429 2.61591974,10.9751429 2.61591974,8.00046429 C2.61591974,5.02578571 5.03095604,2.61428571 8.00999678,2.61428571 C9.93449337,2.61428571 11.6706785,3.63107143 12.6308344,5.22357143 L11.2452341,6.60760714 L14.5,6.60760714 Z" id="路径"></path>
                    </g>
                </g>
            </g>
        </g>
    </g>
</svg>